<svg width="1280" height="640" viewBox="0 0 1280 640" fill="none" xmlns="http://www.w3.org/2000/svg" role="img" aria-labelledby="title desc">
  <title id="title">Šváb Pi hero</title>
  <desc id="desc">A terminal themed illustration showing Šváb Pi clarify-to-goal runtime orchestration, review, search, memory, and subagents.</desc>
  <defs>
    <linearGradient id="bg" x1="0" y1="0" x2="1280" y2="640" gradientUnits="userSpaceOnUse">
      <stop stop-color="#09090B"/>
      <stop offset="0.52" stop-color="#111827"/>
      <stop offset="1" stop-color="#27111B"/>
    </linearGradient>
    <linearGradient id="accent" x1="200" y1="110" x2="1080" y2="530" gradientUnits="userSpaceOnUse">
      <stop stop-color="#22D3EE"/>
      <stop offset="0.5" stop-color="#A78BFA"/>
      <stop offset="1" stop-color="#F97316"/>
    </linearGradient>
    <filter id="glow" x="-30%" y="-30%" width="160%" height="160%">
      <feGaussianBlur stdDeviation="18" result="blur"/>
      <feColorMatrix in="blur" type="matrix" values="0 0 0 0 0.55 0 0 0 0 0.35 0 0 0 0 1 0 0 0 .7 0"/>
      <feBlend in="SourceGraphic" mode="screen"/>
    </filter>
  </defs>
  <rect width="1280" height="640" rx="36" fill="url(#bg)"/>
  <circle cx="1008" cy="124" r="170" fill="#7C3AED" opacity="0.16"/>
  <circle cx="244" cy="548" r="210" fill="#0891B2" opacity="0.14"/>
  <path d="M110 490C260 340 368 402 506 292C650 177 790 92 1166 182" stroke="url(#accent)" stroke-width="3" opacity="0.38"/>

  <g filter="url(#glow)">
    <rect x="128" y="94" width="1024" height="452" rx="24" fill="#0B1020" stroke="url(#accent)" stroke-width="2"/>
  </g>
  <rect x="128" y="94" width="1024" height="56" rx="24" fill="#141827"/>
  <circle cx="166" cy="122" r="8" fill="#EF4444"/>
  <circle cx="194" cy="122" r="8" fill="#F59E0B"/>
  <circle cx="222" cy="122" r="8" fill="#22C55E"/>
  <text x="260" y="130" fill="#94A3B8" font-family="ui-monospace, SFMono-Regular, Menlo, Consolas, monospace" font-size="18">svab-pi — engineering discipline for pi</text>

  <text x="176" y="222" fill="#F8FAFC" font-family="Inter, ui-sans-serif, system-ui, sans-serif" font-size="66" font-weight="800">Šváb Pi</text>
  <text x="176" y="270" fill="#CBD5E1" font-family="Inter, ui-sans-serif, system-ui, sans-serif" font-size="26">Deep clarify, durable goals, verifier guard, subagents, memory, LSP, and fast search for pi.</text>

  <g font-family="ui-monospace, SFMono-Regular, Menlo, Consolas, monospace" font-size="19">
    <text x="180" y="340" fill="#22D3EE">/clarify</text>
    <text x="292" y="340" fill="#64748B">→</text>
    <text x="326" y="340" fill="#A78BFA">Goal Contract</text>
    <text x="500" y="340" fill="#64748B">→</text>
    <text x="534" y="340" fill="#F97316">/goal</text>
    <text x="612" y="340" fill="#64748B">→</text>
    <text x="646" y="340" fill="#34D399">verifier PASS</text>
  </g>

  <g transform="translate(176 382)">
    <rect width="196" height="86" rx="18" fill="#111827" stroke="#22D3EE" stroke-opacity="0.55"/>
    <text x="24" y="36" fill="#E0F2FE" font-family="Inter, ui-sans-serif, system-ui" font-size="20" font-weight="700">Deep clarify</text>
    <text x="24" y="64" fill="#94A3B8" font-family="Inter, ui-sans-serif, system-ui" font-size="15">runtime gated</text>
  </g>
  <g transform="translate(404 382)">
    <rect width="196" height="86" rx="18" fill="#111827" stroke="#A78BFA" stroke-opacity="0.55"/>
    <text x="24" y="36" fill="#EDE9FE" font-family="Inter, ui-sans-serif, system-ui" font-size="20" font-weight="700">Goal runtime</text>
    <text x="24" y="64" fill="#94A3B8" font-family="Inter, ui-sans-serif, system-ui" font-size="15">auto continue</text>
  </g>
  <g transform="translate(632 382)">
    <rect width="196" height="86" rx="18" fill="#111827" stroke="#34D399" stroke-opacity="0.55"/>
    <text x="24" y="36" fill="#DCFCE7" font-family="Inter, ui-sans-serif, system-ui" font-size="20" font-weight="700">Verifier guard</text>
    <text x="24" y="64" fill="#94A3B8" font-family="Inter, ui-sans-serif, system-ui" font-size="15">PASS required</text>
  </g>
  <g transform="translate(860 382)">
    <rect width="196" height="86" rx="18" fill="#111827" stroke="#F97316" stroke-opacity="0.55"/>
    <text x="24" y="36" fill="#FFEDD5" font-family="Inter, ui-sans-serif, system-ui" font-size="20" font-weight="700">Subagents</text>
    <text x="24" y="64" fill="#94A3B8" font-family="Inter, ui-sans-serif, system-ui" font-size="15">review + search</text>
  </g>
</svg>
