<svg width="1080" height="520" viewBox="0 0 1080 520" fill="none" xmlns="http://www.w3.org/2000/svg" role="img" aria-labelledby="title desc">
  <title id="title">ROACH PI workflow preview</title>
  <desc id="desc">A terminal-style workflow preview showing the clarify to goal flow: deep clarification, Goal Contract, automatic goal execution, and verifier PASS.</desc>
  <rect width="1080" height="520" rx="28" fill="#0B1020"/>
  <rect x="34" y="32" width="1012" height="456" rx="22" fill="#111827" stroke="#334155"/>
  <rect x="34" y="32" width="1012" height="52" rx="22" fill="#1E293B"/>
  <circle cx="70" cy="58" r="7" fill="#EF4444"/>
  <circle cx="94" cy="58" r="7" fill="#F59E0B"/>
  <circle cx="118" cy="58" r="7" fill="#22C55E"/>
  <text x="150" y="65" fill="#CBD5E1" font-family="ui-monospace, SFMono-Regular, Menlo, Consolas, monospace" font-size="16">clarify → goal runtime</text>

  <g font-family="Inter, ui-sans-serif, system-ui, sans-serif">
    <text x="72" y="140" fill="#F8FAFC" font-size="34" font-weight="800">From fuzzy idea to verifier-guarded goal</text>
    <text x="72" y="178" fill="#94A3B8" font-size="18">Deep clarification produces a Goal Contract, then /goal auto-runs until reviewer-verifier PASS.</text>
  </g>

  <g font-family="ui-monospace, SFMono-Regular, Menlo, Consolas, monospace" font-size="16">
    <g transform="translate(70 235)">
      <rect width="182" height="96" rx="18" fill="#0F172A" stroke="#22D3EE"/>
      <text x="22" y="38" fill="#67E8F9">/clarify</text>
      <text x="22" y="66" fill="#94A3B8">deep interview</text>
    </g>
    <path d="M268 283H332" stroke="#64748B" stroke-width="2" marker-end="url(#arrow)"/>
    <g transform="translate(348 235)">
      <rect width="190" height="96" rx="18" fill="#0F172A" stroke="#A78BFA"/>
      <text x="22" y="38" fill="#C4B5FD">Goal Contract</text>
      <text x="22" y="66" fill="#94A3B8">gate: PASS</text>
    </g>
    <path d="M554 283H618" stroke="#64748B" stroke-width="2" marker-end="url(#arrow)"/>
    <g transform="translate(634 235)">
      <rect width="188" height="96" rx="18" fill="#0F172A" stroke="#F97316"/>
      <text x="22" y="38" fill="#FDBA74">/goal</text>
      <text x="22" y="66" fill="#94A3B8">auto execute</text>
    </g>
    <path d="M838 283H902" stroke="#64748B" stroke-width="2" marker-end="url(#arrow)"/>
    <g transform="translate(918 235)">
      <rect width="106" height="96" rx="18" fill="#0F172A" stroke="#34D399"/>
      <text x="20" y="38" fill="#86EFAC">PASS</text>
      <text x="20" y="66" fill="#94A3B8">verify</text>
    </g>
  </g>

  <g transform="translate(78 372)" font-family="ui-monospace, SFMono-Regular, Menlo, Consolas, monospace" font-size="15">
    <rect width="926" height="74" rx="16" fill="#020617" stroke="#1E293B"/>
    <text x="22" y="32" fill="#94A3B8">footer</text>
    <text x="88" y="32" fill="#38BDF8">cache 92%</text>
    <text x="198" y="32" fill="#A78BFA">ctx 34%</text>
    <text x="294" y="32" fill="#F59E0B">goal active</text>
    <text x="420" y="32" fill="#22C55E">verifier: pending</text>
    <text x="22" y="56" fill="#64748B">durable goal state, evidence, blockers, and verifier receipts survive session replay</text>
  </g>

  <defs>
    <marker id="arrow" markerWidth="8" markerHeight="8" refX="5" refY="4" orient="auto" markerUnits="strokeWidth">
      <path d="M0 0L8 4L0 8V0Z" fill="#64748B"/>
    </marker>
  </defs>
</svg>
